# xmcd CD database file
#
# Track frame offsets:
#	150
#	13683
#	30531
#	47610
#	68844
#
# Disc length: 1107 seconds
#
# Revision: 0
# Processed by: cddbd v1.5.2PL0 Copyright (c) Steve Scherf et al.
# Submitted via: CDex 1.51
#
DISCID=36045105
DTITLE=The Urban Voodoo Machine - With Love From
DYEAR=2006
DGENRE=Blues
TTITLE0=The Corpse In My Trunk
TTITLE1=We Don't Want Your Love
TTITLE2=Getting Hot, Going Down
TTITLE3=Recipie For Disaster
TTITLE4=Six Weeks On The Road
EXTD=YEAR: 2006
EXTT0=
EXTT1=
EXTT2=
EXTT3=
EXTT4=
PLAYORDER=
